<svg width="27" height="28" viewBox="0 0 27 28" fill="none" xmlns="http://www.w3.org/2000/svg">
<path d="M9.00001 12.8751C9.00001 12.5767 9.11854 12.2906 9.32952 12.0796C9.5405 11.8686 9.82664 11.7501 10.125 11.7501H16.875C17.1734 11.7501 17.4595 11.8686 17.6705 12.0796C17.8815 12.2906 18 12.5767 18 12.8751C18 13.1735 17.8815 13.4596 17.6705 13.6706C17.4595 13.8816 17.1734 14.0001 16.875 14.0001H10.125C9.82664 14.0001 9.5405 13.8816 9.32952 13.6706C9.11854 13.4596 9.00001 13.1735 9.00001 12.8751ZM10.125 16.2501C9.82664 16.2501 9.5405 16.3686 9.32952 16.5796C9.11854 16.7906 9.00001 17.0767 9.00001 17.3751C9.00001 17.6735 9.11854 17.9596 9.32952 18.1706C9.5405 18.3816 9.82664 18.5001 10.125 18.5001H14.625C14.9234 18.5001 15.2095 18.3816 15.4205 18.1706C15.6315 17.9596 15.75 17.6735 15.75 17.3751C15.75 17.0767 15.6315 16.7906 15.4205 16.5796C15.2095 16.3686 14.9234 16.2501 14.625 16.2501H10.125ZM2.25001 14.0001C2.25058 11.5337 3.06168 9.13575 4.55849 7.17541C6.05531 5.21507 8.15487 3.80095 10.5341 3.1507C12.9133 2.50045 15.4402 2.65009 17.726 3.5766C20.0118 4.50311 21.9298 6.15514 23.1848 8.27844C24.4398 10.4017 24.9622 12.8786 24.6717 15.3279C24.3811 17.7772 23.2937 20.0631 21.5768 21.8339C19.8599 23.6046 17.6087 24.7621 15.1695 25.1281C12.7304 25.4941 10.2385 25.0484 8.07751 23.8596L3.70351 25.1916C3.50842 25.251 3.30084 25.2563 3.10297 25.2069C2.90511 25.1574 2.72441 25.0551 2.58019 24.9109C2.43598 24.7667 2.33369 24.586 2.28425 24.3882C2.23481 24.1903 2.24008 23.9827 2.29951 23.7876L3.63151 19.4069C2.72241 17.75 2.24717 15.89 2.25001 14.0001ZM13.5 5.00012C11.9024 4.99998 10.3335 5.42513 8.95451 6.23189C7.57554 7.03865 6.43616 8.19795 5.65343 9.5907C4.87069 10.9835 4.4728 12.5595 4.50062 14.1569C4.52845 15.7543 4.98099 17.3155 5.81176 18.6801C5.89423 18.8157 5.94709 18.9671 5.96686 19.1246C5.98664 19.282 5.97289 19.4419 5.92651 19.5936L5.06476 22.4264L7.89301 21.5646C8.04525 21.5182 8.20559 21.5047 8.36344 21.5249C8.5213 21.545 8.67308 21.5984 8.80876 21.6816C9.99492 22.4058 11.3327 22.8455 12.7172 22.9661C14.1017 23.0868 15.4953 22.8852 16.7889 22.3771C18.0824 21.869 19.2407 21.0683 20.173 20.0377C21.1053 19.007 21.7863 17.7745 22.1625 16.4366C22.5388 15.0988 22.6001 13.692 22.3416 12.3264C22.0832 10.9609 21.512 9.67383 20.6729 8.566C19.8338 7.45817 18.7495 6.55972 17.505 5.94106C16.2606 5.32239 14.8898 5.00033 13.5 5.00012Z" fill="black"/>
</svg>
