<svg width="28" height="28" viewBox="0 0 28 28" fill="none" xmlns="http://www.w3.org/2000/svg">
<path d="M14 25.25C7.78663 25.25 2.75 20.2134 2.75 14C2.75 7.78663 7.78663 2.75 14 2.75C20.2134 2.75 25.25 7.78663 25.25 14C25.25 20.2134 20.2134 25.25 14 25.25ZM14 23C16.3869 23 18.6761 22.0518 20.364 20.364C22.0518 18.6761 23 16.3869 23 14C23 11.6131 22.0518 9.32387 20.364 7.63604C18.6761 5.94821 16.3869 5 14 5C11.6131 5 9.32387 5.94821 7.63604 7.63604C5.94821 9.32387 5 11.6131 5 14C5 16.3869 5.94821 18.6761 7.63604 20.364C9.32387 22.0518 11.6131 23 14 23ZM8.375 13.4375L18.5 9.5L14.5625 19.6273L12.875 15.125L8.375 13.4375Z" fill="black"/>
</svg>
