<svg width="44" height="44" viewBox="0 0 44 44" fill="none" xmlns="http://www.w3.org/2000/svg">
<path d="M21.9999 8.30132C19.8656 6.38746 17.0684 5.38243 14.2041 5.50027C11.3398 5.61811 8.63459 6.84951 6.66468 8.93222C4.69476 11.0149 3.61575 13.7844 3.65741 16.6509C3.69908 19.5173 4.85814 22.2542 6.88776 24.2788L19.4076 36.7968C20.0952 37.4842 21.0277 37.8704 21.9999 37.8704C22.9722 37.8704 23.9047 37.4842 24.5923 36.7968L37.1121 24.2788C39.1417 22.2542 40.3008 19.5173 40.3424 16.6509C40.3841 13.7844 39.3051 11.0149 37.3352 8.93222C35.3653 6.84951 32.6601 5.61811 29.7958 5.50027C26.9314 5.38243 24.1343 6.38746 21.9999 8.30132ZM19.8513 11.3153L20.7038 12.166C21.0476 12.5097 21.5138 12.7028 21.9999 12.7028C22.4861 12.7028 22.9523 12.5097 23.2961 12.166L24.1486 11.3153C24.8251 10.6149 25.6343 10.0562 26.529 9.67191C27.4237 9.28758 28.3859 9.08528 29.3597 9.07682C30.3334 9.06836 31.299 9.25391 32.2003 9.62263C33.1015 9.99136 33.9203 10.5359 34.6088 11.2244C35.2974 11.913 35.8419 12.7318 36.2106 13.633C36.5793 14.5342 36.7649 15.4999 36.7564 16.4736C36.748 17.4473 36.5457 18.4096 36.1613 19.3043C35.777 20.199 35.2183 21.0082 34.5179 21.6847L21.9999 34.2045L9.48193 21.6847C8.1461 20.3016 7.40694 18.4492 7.42365 16.5264C7.44036 14.6036 8.2116 12.7643 9.57126 11.4047C10.9309 10.045 12.7702 9.27376 14.693 9.25705C16.6158 9.24034 18.4682 9.9795 19.8513 11.3153Z" fill="black"/>
</svg>
