<svg width="27" height="27" viewBox="0 0 27 27" fill="none" xmlns="http://www.w3.org/2000/svg">
<path d="M24.9565 13.3155L14.7682 3.13249L14.0853 2.44958C13.9297 2.295 13.7193 2.20825 13.5 2.20825C13.2806 2.20825 13.0702 2.295 12.9146 2.44958L2.04342 13.3155C1.88398 13.4743 1.75797 13.6635 1.67283 13.8718C1.5877 14.0801 1.54515 14.3034 1.54772 14.5284C1.55826 15.4565 2.33082 16.1974 3.25895 16.1974H4.37955V24.7852H22.6204V16.1974H23.7647C24.2156 16.1974 24.6401 16.0208 24.9591 15.7017C25.1162 15.5451 25.2407 15.3589 25.3253 15.1539C25.41 14.9489 25.4531 14.7291 25.4522 14.5073C25.4522 14.0591 25.2755 13.6345 24.9565 13.3155ZM14.9765 22.8868H12.0234V17.5079H14.9765V22.8868ZM20.7219 14.299V22.8868H16.664V16.8751C16.664 16.2924 16.1921 15.8204 15.6093 15.8204H11.3906C10.8079 15.8204 10.3359 16.2924 10.3359 16.8751V22.8868H6.27799V14.299H3.74674L13.5026 4.55104L14.1117 5.16012L23.2558 14.299H20.7219Z" fill="black"/>
</svg>
