<svg xmlns="http://www.w3.org/2000/svg" viewBox="0 0 50 50">
  <path d="M25 4C17.262963 4 11 10.262963 11 18C11 24.408127 14.354913 31.253664 17.650391 36.564453C20.945868 41.875242 24.246094 45.658203 24.246094 45.658203 A 1.0001 1.0001 0 0 0 25.759766 45.650391C25.759766 45.650391 29.057894 41.795097 32.351562 36.449219C35.645232 31.103329 39 24.267232 39 18C39 10.262963 32.737037 4 25 4 z M 25 6C31.662963 6 37 11.337037 37 18C37 23.532768 33.854768 30.196269 30.648438 35.400391C28.045417 39.625292 25.880549 42.321828 24.994141 43.400391C24.103031 42.335155 21.945515 39.693167 19.349609 35.509766C16.145087 30.345555 13 23.691873 13 18C13 11.337037 18.337037 6 25 6 z M 25 11C21.154545 11 18 14.154545 18 18C18 21.845455 21.154545 25 25 25C28.845455 25 32 21.845455 32 18C32 14.154545 28.845455 11 25 11 z M 25 13C27.754545 13 30 15.245455 30 18C30 20.754545 27.754545 23 25 23C22.245455 23 20 20.754545 20 18C20 15.245455 22.245455 13 25 13 z" fill="#5B5B5B" />
</svg>