<svg width="28" height="42" viewBox="0 0 28 42" fill="none" xmlns="http://www.w3.org/2000/svg">
<path d="M14 0C6.26296 0 0 6.26296 0 14C0 20.4081 3.35491 27.2537 6.65039 32.5645C9.94587 37.8752 13.2461 41.6582 13.2461 41.6582C13.3405 41.7664 13.4572 41.853 13.5881 41.9121C13.719 41.9712 13.8611 42.0014 14.0047 42.0006C14.1483 41.9999 14.2901 41.9682 14.4204 41.9078C14.5507 41.8474 14.6664 41.7596 14.7598 41.6504C14.7598 41.6504 18.0579 37.7951 21.3516 32.4492C24.6452 27.1033 28 20.2672 28 14C28 6.26296 21.737 0 14 0ZM14 2C20.663 2 26 7.33704 26 14C26 19.5328 22.8548 26.1963 19.6484 31.4004C17.0454 35.6253 14.8805 38.3218 13.9941 39.4004C13.103 38.3352 10.9455 35.6932 8.34961 31.5098C5.14509 26.3456 2 19.6919 2 14C2 7.33704 7.33704 2 14 2ZM14 7C10.1545 7 7 10.1545 7 14C7 17.8455 10.1545 21 14 21C17.8455 21 21 17.8455 21 14C21 10.1545 17.8455 7 14 7ZM14 9C16.7545 9 19 11.2455 19 14C19 16.7545 16.7545 19 14 19C11.2455 19 9 16.7545 9 14C9 11.2455 11.2455 9 14 9Z" fill="#F59E0B"/>
</svg>
