<svg xmlns="http://www.w3.org/2000/svg" viewBox="0 0 24 24">
  <path d="M12 4C7.589 4 4 7.589 4 12C4 16.411 7.589 20 12 20C16.411 20 20 16.411 20 12C20 7.589 16.411 4 12 4 z M 11.712891 6.0136719L11.712891 7.0273438C11.373891 7.0703437 9.4765625 7.42875 9.4765625 9.71875C9.4765625 13.05975 12.935547 12.069828 12.935547 14.298828C12.935547 15.414828 12.213406 15.441406 12.066406 15.441406C11.932406 15.441406 11.052734 15.512688 11.052734 13.804688L9.1621094 13.804688C9.1621094 16.696688 11.260266 16.927703 11.572266 16.970703L11.572266 17.978516C8.462797 17.757912 6 15.164763 6 12C6 8.7878034 8.5375172 6.1647918 11.712891 6.0136719 z M 12.720703 6.0488281C15.69045 6.4063489 18 8.9352803 18 12C18 15.11536 15.614798 17.680867 12.574219 17.970703L12.574219 16.970703C12.912219 16.928703 14.824219 16.613156 14.824219 14.285156C14.824219 11.080156 11.366234 11.693563 11.365234 9.7265625C11.365234 8.5995625 11.985141 8.5644531 12.119141 8.5644531C12.364141 8.5644531 12.947266 8.7812969 12.947266 10.154297L14.837891 10.154297C14.837891 7.5272969 13.041703 7.1176406 12.720703 7.0566406L12.720703 6.0488281 z" fill="#5B5B5B" />
</svg>