<svg width="21" height="21" viewBox="0 0 21 21" fill="none" xmlns="http://www.w3.org/2000/svg">
<path d="M10.5 3.5C6.64038 3.5 3.5 6.64038 3.5 10.5C3.5 14.3596 6.64038 17.5 10.5 17.5C14.3596 17.5 17.5 14.3596 17.5 10.5C17.5 6.64038 14.3596 3.5 10.5 3.5ZM10.2488 5.26196V6.14893C9.95215 6.18655 8.29199 6.50016 8.29199 8.50391C8.29199 11.4273 11.3186 10.5611 11.3186 12.5115C11.3186 13.488 10.6867 13.5112 10.5581 13.5112C10.4409 13.5112 9.67114 13.5736 9.67114 12.0791H8.01685C8.01685 14.6096 9.85273 14.8117 10.1257 14.8494V15.7312C7.40495 15.5382 5.25 13.2692 5.25 10.5C5.25 7.68933 7.47033 5.39419 10.2488 5.26196ZM11.1306 5.29272C13.7291 5.60556 15.75 7.81837 15.75 10.5C15.75 13.2259 13.6629 15.4708 11.0024 15.7244V14.8494C11.2982 14.8126 12.9712 14.5365 12.9712 12.4995C12.9712 9.69514 9.94546 10.2319 9.94458 8.51074C9.94458 7.52462 10.487 7.4939 10.6042 7.4939C10.8186 7.4939 11.3289 7.68363 11.3289 8.88501H12.9832C12.9832 6.58638 11.4115 6.22794 11.1306 6.17456V5.29272Z" fill="#F59E0B"/>
</svg>
