<svg width="28" height="26" viewBox="0 0 28 26" fill="none" xmlns="http://www.w3.org/2000/svg">
<path fill-rule="evenodd" clip-rule="evenodd" d="M2.78541 3.74667L4.16642 11.6874H12.6875C13.4124 11.6874 14 12.2751 14 12.9999C14 13.7248 13.4124 14.3124 12.6875 14.3124H4.16642L2.78541 22.2532L24.3764 12.9999L2.78541 3.74667ZM1.73028 12.9999L0.1114 3.6914C-0.0194727 2.93889 0.224025 2.16974 0.764126 1.62964C1.44275 0.951026 2.46617 0.753923 3.3483 1.13198L26.8024 11.1837C27.5289 11.4951 28 12.2095 28 12.9999C28 13.7904 27.5289 14.5048 26.8024 14.8162L3.3483 24.8679C2.46617 25.246 1.44275 25.0488 0.764126 24.3703C0.224025 23.8301 -0.019473 23.061 0.1114 22.3085L1.73028 12.9999Z" fill="#8E8E93"/>
</svg>
