<svg width="27" height="28" viewBox="0 0 27 28" fill="none" xmlns="http://www.w3.org/2000/svg">
<g clip-path="url(#clip0_473_898)">
<path d="M6.75 8.68433V10.2031H8.4375V8.68433H6.75ZM18.5625 8.68433V10.2031H20.25V8.68433H18.5625ZM6.75 11.7218V13.2406H8.4375V11.7218H6.75ZM18.5625 11.7218V13.2406H20.25V11.7218H18.5625ZM6.75 14.7593V16.2781H8.4375V14.7593H6.75ZM18.5625 14.7593V16.2781H20.25V14.7593H18.5625ZM6.75 17.7968V19.3156H8.4375V17.7968H6.75ZM18.5625 17.7968V19.3156H20.25V17.7968H18.5625Z" fill="black"/>
<path d="M2.53125 5.5625C1.85992 5.5625 1.21609 5.82918 0.741386 6.30389C0.266684 6.77859 0 7.42242 0 8.09375L0 10.625C0 10.8488 0.0888949 11.0634 0.247129 11.2216C0.405362 11.3799 0.619974 11.4688 0.84375 11.4688C1.51508 11.4688 2.15891 11.7354 2.63361 12.2101C3.10832 12.6848 3.375 13.3287 3.375 14C3.375 14.6713 3.10832 15.3152 2.63361 15.7899C2.15891 16.2646 1.51508 16.5312 0.84375 16.5312C0.619974 16.5312 0.405362 16.6201 0.247129 16.7784C0.0888949 16.9366 0 17.1512 0 17.375L0 19.9062C0 20.5776 0.266684 21.2214 0.741386 21.6961C1.21609 22.1708 1.85992 22.4375 2.53125 22.4375H24.4688C25.1401 22.4375 25.7839 22.1708 26.2586 21.6961C26.7333 21.2214 27 20.5776 27 19.9062V17.375C27 17.1512 26.9111 16.9366 26.7529 16.7784C26.5946 16.6201 26.38 16.5312 26.1562 16.5312C25.4849 16.5312 24.8411 16.2646 24.3664 15.7899C23.8917 15.3152 23.625 14.6713 23.625 14C23.625 13.3287 23.8917 12.6848 24.3664 12.2101C24.8411 11.7354 25.4849 11.4687 26.1562 11.4687C26.38 11.4687 26.5946 11.3799 26.7529 11.2216C26.9111 11.0634 27 10.8488 27 10.625V8.09375C27 7.42242 26.7333 6.77859 26.2586 6.30389C25.7839 5.82918 25.1401 5.5625 24.4688 5.5625L2.53125 5.5625ZM1.6875 8.09375C1.6875 7.86997 1.77639 7.65536 1.93463 7.49713C2.09286 7.33889 2.30747 7.25 2.53125 7.25L24.4688 7.25C24.6925 7.25 24.9071 7.33889 25.0654 7.49713C25.2236 7.65536 25.3125 7.86997 25.3125 8.09375V9.86563C24.3588 10.0593 23.5014 10.5767 22.8856 11.3302C22.2697 12.0836 21.9333 13.0269 21.9333 14C21.9333 14.9731 22.2697 15.9164 22.8856 16.6698C23.5014 17.4233 24.3588 17.9407 25.3125 18.1344V19.9062C25.3125 20.13 25.2236 20.3446 25.0654 20.5029C24.9071 20.6611 24.6925 20.75 24.4688 20.75H2.53125C2.30747 20.75 2.09286 20.6611 1.93463 20.5029C1.77639 20.3446 1.6875 20.13 1.6875 19.9062L1.6875 18.1344C2.64118 17.9407 3.49859 17.4233 4.11444 16.6698C4.7303 15.9164 5.06673 14.9731 5.06673 14C5.06673 13.0269 4.7303 12.0836 4.11444 11.3302C3.49859 10.5767 2.64118 10.0593 1.6875 9.86563V8.09375Z" fill="black"/>
</g>
<defs>
<clipPath id="clip0_473_898">
<rect width="27" height="27" fill="white" transform="translate(0 0.5)"/>
</clipPath>
</defs>
</svg>
